name D:\school\WTK\thesis\model\3dpredictsim\Results\test_WL_v2\Fal_s1_bCst_PF_Natali2010_ls135_k150_kmtp_ig24.mot
datacolumns 128
datarows 4
range 1.70701319 1.74115345
endheader
time	pelvis_tilt	pelvis_list	pelvis_rotation	pelvis_tx	pelvis_ty	pelvis_tz	hip_flexion_l	hip_adduction_l	hip_rotation_l	hip_flexion_r	hip_adduction_r	hip_rotation_r	knee_angle_l	knee_angle_r	ankle_angle_l	ankle_angle_r	subtalar_angle_l	subtalar_angle_r	tmt_angle_l	tmt_angle_r	mtp_angle_l	mtp_angle_r	lumbar_extension	lumbar_bending	lumbar_rotation	arm_flex_l	arm_add_l	arm_rot_l	arm_flex_r	arm_add_r	arm_rot_r	elbow_flex_l	elbow_flex_r	pro_sup_l	pro_sup_r	glut_med1_l/activation	glut_med2_l/activation	glut_med3_l/activation	glut_min1_l/activation	glut_min2_l/activation	glut_min3_l/activation	semimem_l/activation	semiten_l/activation	bifemlh_l/activation	bifemsh_l/activation	sar_l/activation	add_long_l/activation	add_brev_l/activation	add_mag1_l/activation	add_mag2_l/activation	add_mag3_l/activation	tfl_l/activation	pect_l/activation	grac_l/activation	glut_max1_l/activation	glut_max2_l/activation	glut_max3_l/activation	iliacus_l/activation	psoas_l/activation	quad_fem_l/activation	gem_l/activation	peri_l/activation	rect_fem_l/activation	vas_med_l/activation	vas_int_l/activation	vas_lat_l/activation	med_gas_l/activation	lat_gas_l/activation	soleus_l/activation	tib_post_l/activation	flex_dig_l/activation	flex_hal_l/activation	tib_ant_l/activation	per_brev_l/activation	per_long_l/activation	per_tert_l/activation	ext_dig_l/activation	ext_hal_l/activation	ercspn_l/activation	intobl_l/activation	extobl_l/activation	glut_med1_r/activation	glut_med2_r/activation	glut_med3_r/activation	glut_min1_r/activation	glut_min2_r/activation	glut_min3_r/activation	semimem_r/activation	semiten_r/activation	bifemlh_r/activation	bifemsh_r/activation	sar_r/activation	add_long_r/activation	add_brev_r/activation	add_mag1_r/activation	add_mag2_r/activation	add_mag3_r/activation	tfl_r/activation	pect_r/activation	grac_r/activation	glut_max1_r/activation	glut_max2_r/activation	glut_max3_r/activation	iliacus_r/activation	psoas_r/activation	quad_fem_r/activation	gem_r/activation	peri_r/activation	rect_fem_r/activation	vas_med_r/activation	vas_int_r/activation	vas_lat_r/activation	med_gas_r/activation	lat_gas_r/activation	soleus_r/activation	tib_post_r/activation	flex_dig_r/activation	flex_hal_r/activation	tib_ant_r/activation	per_brev_r/activation	per_long_r/activation	per_tert_r/activation	ext_dig_r/activation	ext_hal_r/activation	ercspn_r/activation	intobl_r/activation	extobl_r/activation	
          1.70701319	         -2.92988612	          1.85842011	         -5.38849833	          2.13376649	          0.91990026	          0.00293865	         29.59556589	          2.78548348	         -2.94449594	        -17.03505512	         -0.51440040	          6.19230028	        -10.97245736	         -6.61760115	          7.97270454	          0.51447508	         -3.70815435	          6.12054845	         -3.39267779	         -0.52700369	         -0.08657676	         22.68848319	         -1.69536934	          0.20419467	          1.91868870	         -5.56181720	        -13.46003626	          6.19995633	          4.36415586	        -13.44975131	         14.20110919	         17.94178263	         34.24696255	         86.51662706	         86.51662706	          0.07858787	          0.05000035	          0.05948347	          0.05000013	          0.05000018	          0.05000111	          0.21784502	          0.05948410	          0.08282279	          0.05000246	          0.05000087	          0.08857569	          0.17402353	          0.19784326	          0.14852718	          0.09233981	          0.05948358	          0.05000638	          0.10295770	          0.05948445	          0.05956086	          0.10358534	          0.05000012	          0.05000019	          0.25122657	          0.05028072	          0.05000079	          0.05000012	          0.05000135	          0.05000145	          0.05000092	          0.05948340	          0.05948339	          0.05948339	          0.05160046	          0.05000141	          0.05001318	          0.47603041	          0.25391853	          0.19234249	          0.08115560	          0.47865959	          0.05955197	          0.05948347	          0.14281702	          0.11915168	          0.33340723	          0.10015653	          0.07187922	          0.30523636	          0.20005563	          0.11172872	          0.05000108	          0.05000027	          0.05000021	          0.05676631	          0.10515381	          0.05000011	          0.05000012	          0.05000020	          0.05000064	          0.05000058	          0.31435043	          0.05000046	          0.05000048	          0.05016726	          0.05003094	          0.05000200	          0.42547879	          0.65155933	          0.05000053	          0.05000373	          0.07076360	          0.25708526	          0.05936890	          0.05005957	          0.05004115	          0.28926848	          0.38785264	          0.31462347	          0.28331347	          0.26408743	          0.35029773	          0.05000008	          0.05718524	          0.12186030	          0.05000040	          0.05000012	          0.05000043	          0.05000001	          0.05000002	          0.05000003	
          1.71839328	         -2.92939101	          1.93550224	         -5.69281599	          2.15081383	          0.91907457	          0.00275597	         29.04225779	          3.12761545	         -2.74127481	        -17.03760322	         -0.81164652	          5.95590499	        -11.05752983	         -8.29145124	          7.30464654	         -0.00630109	         -4.04669242	          6.96500749	         -3.44761784	         -1.28658256	         -0.06430282	         24.07418852	         -1.49964690	          0.01948947	          1.98595597	         -6.48247845	        -13.45298812	          6.01116168	          4.15102944	        -13.45359468	         14.63715403	         17.56808214	         35.40464650	         86.51662706	         86.51662706	          0.06605898	          0.05000116	          0.05000018	          0.05948438	          0.05948349	          0.05000068	          0.18311420	          0.05000066	          0.06961843	          0.05000040	          0.05000184	          0.11915098	          0.23002661	          0.23332354	          0.16011222	          0.09059230	          0.05000038	          0.07083293	          0.08654372	          0.05000108	          0.05006519	          0.10490806	          0.07076501	          0.06790235	          0.53422713	          0.16895175	          0.13122828	          0.08418741	          0.19330739	          0.19108630	          0.16677056	          0.05000002	          0.05000004	          0.05000000	          0.05000009	          0.05000110	          0.05000061	          0.55214569	          0.27553982	          0.16168716	          0.20030422	          0.51326940	          0.06520371	          0.05000007	          0.12004781	          0.10015541	          0.28025282	          0.08418866	          0.06041959	          0.25657292	          0.16816096	          0.09391594	          0.05000222	          0.05000045	          0.05000042	          0.05000048	          0.08838947	          0.09422043	          0.08482002	          0.05000720	          0.05000710	          0.05000312	          0.26423392	          0.07929105	          0.05000237	          0.05000139	          0.05000093	          0.05000123	          0.35764505	          0.54768261	          0.05000023	          0.05000151	          0.05948273	          0.21609838	          0.05000136	          0.14403324	          0.13092273	          0.24315058	          0.32601758	          0.27401052	          0.26261438	          0.22198520	          0.29445239	          0.05000003	          0.05095324	          0.11831034	          0.05000020	          0.05000004	          0.05000019	          0.05000005	          0.07531030	          0.05837308	
          1.72977336	         -2.92489439	          2.01546509	         -5.96904984	          2.16821357	          0.91827860	          0.00258232	         28.36839130	          3.40696692	         -2.48042006	        -16.99123912	         -1.11373517	          5.70521619	        -11.55593938	        -10.04848137	          6.65056430	         -0.64063596	         -4.38747410	          7.78503434	         -3.61993227	         -2.14449272	         -0.10972467	         25.35152812	         -1.28017031	         -0.17804417	          2.04322823	         -7.44298349	        -13.44999963	          5.86487556	          3.86247312	        -13.45620176	         15.01677259	         17.25328693	         36.52592938	         86.51662706	         86.51662706	          0.22215213	          0.05000025	          0.18919388	          0.05000090	          0.05000035	          0.05000072	          0.16956444	          0.08697711	          0.07998048	          0.05000021	          0.05000272	          0.10015492	          0.19335380	          0.19612519	          0.13458601	          0.10078686	          0.05000113	          0.05954248	          0.07274688	          0.05000142	          0.05288921	          0.08818285	          0.05948340	          0.05717282	          0.44905565	          0.14201596	          0.11030702	          0.07076547	          0.16248855	          0.16062157	          0.14018246	          0.05693780	          0.06518304	          0.05604098	          0.05000247	          0.05000130	          0.05000160	          0.46411753	          0.25052228	          0.16212051	          0.16836987	          0.60201882	          0.05480834	          0.05000002	          0.12459802	          0.08418770	          0.33888625	          0.07076654	          0.05078701	          0.21566788	          0.14135124	          0.07894303	          0.05000839	          0.05000286	          0.05000187	          0.05000035	          0.07429786	          0.13321096	          0.11819995	          0.05948652	          0.05948430	          0.05948452	          0.22210757	          0.07536621	          0.05008946	          0.05006098	          0.05011915	          0.05948222	          0.30062611	          0.54179448	          0.05592687	          0.05000225	          0.05000021	          0.18164597	          0.15146316	          0.13475138	          0.11168137	          0.20438523	          0.27404080	          0.23032518	          0.22074605	          0.18659442	          0.24750819	          0.05000006	          0.05000045	          0.14249634	          0.05000021	          0.05000014	          0.05000029	          0.05000021	          0.06330363	          0.05948374	
          1.74115345	         -2.91807175	          2.09765302	         -6.21103429	          2.18580710	          0.91751946	          0.00240642	         27.57242544	          3.63495964	         -2.21312846	        -16.88228471	         -1.41595826	          5.44786211	        -12.02842946	        -11.89267568	          6.02424417	         -1.39660085	         -4.75005222	          8.55842050	         -3.56617904	         -3.05795583	         -0.16332195	         26.41795081	         -1.05256992	         -0.38767658	          2.09100066	         -8.40448564	        -13.45175715	          5.77377782	          3.52094252	        -13.46046322	         15.35135449	         16.97257939	         37.60377875	         86.51662706	         86.51662706	          0.28233767	          0.24950317	          0.31111037	          0.19351467	          0.20428935	          0.19685457	          0.14253090	          0.07311076	          0.06722929	          0.08418769	          0.05000674	          0.08418733	          0.16252758	          0.16485736	          0.11312957	          0.12593019	          0.05000086	          0.05005029	          0.10307817	          0.18142173	          0.13874570	          0.10672373	          0.05000023	          0.05000018	          0.37746304	          0.11937463	          0.15002593	          0.05948341	          0.13658329	          0.13501403	          0.11783344	          0.05000058	          0.05947852	          0.05000006	          0.05000011	          0.05000067	          0.05000086	          0.59094882	          0.33796508	          0.18880529	          0.43914781	          0.52996961	          0.24932190	          0.06826724	          0.11227208	          0.07076571	          0.30270847	          0.05948431	          0.05000007	          0.37818101	          0.11881582	          0.06635727	          0.05000216	          0.05000023	          0.05000018	          0.05000058	          0.06245751	          0.13077709	          0.09935557	          0.05000286	          0.05000152	          0.05000132	          0.18717102	          0.06337612	          0.05000066	          0.05000120	          0.05000073	          0.05000058	          0.25269862	          0.51485490	          0.05000009	          0.05000056	          0.05000039	          0.15268646	          0.12731682	          0.13422226	          0.14175275	          0.17180021	          0.23035064	          0.19360457	          0.18555273	          0.15684591	          0.20804821	          0.06355092	          0.11763498	          0.13365559	          0.05063244	          0.10664603	          0.05005793	          0.06456736	          0.05321118	          0.05000030	
